<svg width="80" height="32" viewBox="0 0 80 32" fill="none" xmlns="http://www.w3.org/2000/svg">
<path d="M1.872 11.012H5.928V25H1.872V11.012ZM3.9 9.062C3.15467 9.062 2.548 8.84533 2.08 8.412C1.612 7.97867 1.378 7.44133 1.378 6.8C1.378 6.15867 1.612 5.62133 2.08 5.188C2.548 4.75467 3.15467 4.538 3.9 4.538C4.64533 4.538 5.252 4.746 5.72 5.162C6.188 5.578 6.422 6.098 6.422 6.722C6.422 7.398 6.188 7.96133 5.72 8.412C5.252 8.84533 4.64533 9.062 3.9 9.062ZM15.7552 25.312C14.3165 25.312 12.9212 25.1213 11.5692 24.74C10.2345 24.3413 9.15985 23.83 8.34519 23.206L9.77519 20.034C10.5552 20.606 11.4825 21.0653 12.5572 21.412C13.6319 21.7587 14.7065 21.932 15.7812 21.932C16.9772 21.932 17.8612 21.7587 18.4332 21.412C19.0052 21.048 19.2912 20.5713 19.2912 19.982C19.2912 19.5487 19.1179 19.1933 18.7712 18.916C18.4419 18.6213 18.0085 18.3873 17.4712 18.214C16.9512 18.0407 16.2405 17.85 15.3392 17.642C13.9525 17.3127 12.8172 16.9833 11.9332 16.654C11.0492 16.3247 10.2865 15.796 9.64519 15.068C9.02119 14.34 8.70919 13.3693 8.70919 12.156C8.70919 11.0987 8.99519 10.1453 9.56719 9.296C10.1392 8.42933 10.9972 7.74467 12.1412 7.242C13.3025 6.73933 14.7152 6.488 16.3792 6.488C17.5405 6.488 18.6759 6.62667 19.7852 6.904C20.8945 7.18133 21.8652 7.58 22.6972 8.1L21.3972 11.298C19.7159 10.3447 18.0345 9.868 16.3532 9.868C15.1745 9.868 14.2992 10.0587 13.7272 10.44C13.1725 10.8213 12.8952 11.324 12.8952 11.948C12.8952 12.572 13.2159 13.04 13.8572 13.352C14.5159 13.6467 15.5125 13.9413 16.8472 14.236C18.2339 14.5653 19.3692 14.8947 20.2532 15.224C21.1372 15.5533 21.8912 16.0733 22.5152 16.784C23.1565 17.4947 23.4772 18.4567 23.4772 19.67C23.4772 20.71 23.1825 21.6633 22.5932 22.53C22.0212 23.3793 21.1545 24.0553 19.9932 24.558C18.8319 25.0607 17.4192 25.312 15.7552 25.312ZM35.0913 24.324C34.6926 24.6187 34.1986 24.844 33.6093 25C33.0373 25.1387 32.4306 25.208 31.7893 25.208C30.1253 25.208 28.8339 24.7833 27.9153 23.934C27.0139 23.0847 26.5633 21.8367 26.5633 20.19V14.444H24.4053V11.324H26.5633V7.918H30.6193V11.324H34.1033V14.444H30.6193V20.138C30.6193 20.7273 30.7666 21.1867 31.0613 21.516C31.3733 21.828 31.8066 21.984 32.3613 21.984C33.0026 21.984 33.5486 21.8107 33.9993 21.464L35.0913 24.324ZM43.5925 25.208C42.1191 25.208 40.7931 24.9047 39.6145 24.298C38.4531 23.674 37.5431 22.816 36.8845 21.724C36.2258 20.632 35.8965 19.3927 35.8965 18.006C35.8965 16.6193 36.2258 15.38 36.8845 14.288C37.5431 13.196 38.4531 12.3467 39.6145 11.74C40.7931 11.116 42.1191 10.804 43.5925 10.804C45.0658 10.804 46.3831 11.116 47.5445 11.74C48.7058 12.3467 49.6158 13.196 50.2745 14.288C50.9331 15.38 51.2625 16.6193 51.2625 18.006C51.2625 19.3927 50.9331 20.632 50.2745 21.724C49.6158 22.816 48.7058 23.674 47.5445 24.298C46.3831 24.9047 45.0658 25.208 43.5925 25.208ZM43.5925 21.88C44.6325 21.88 45.4818 21.5333 46.1405 20.84C46.8165 20.1293 47.1545 19.1847 47.1545 18.006C47.1545 16.8273 46.8165 15.8913 46.1405 15.198C45.4818 14.4873 44.6325 14.132 43.5925 14.132C42.5525 14.132 41.6945 14.4873 41.0185 15.198C40.3425 15.8913 40.0045 16.8273 40.0045 18.006C40.0045 19.1847 40.3425 20.1293 41.0185 20.84C41.6945 21.5333 42.5525 21.88 43.5925 21.88ZM57.8476 12.858C58.3329 12.182 58.9829 11.6707 59.7976 11.324C60.6296 10.9773 61.5829 10.804 62.6576 10.804V14.548C62.2069 14.5133 61.9036 14.496 61.7476 14.496C60.5862 14.496 59.6762 14.8253 59.0176 15.484C58.3589 16.1253 58.0296 17.096 58.0296 18.396V25H53.9736V11.012H57.8476V12.858ZM78.6443 18.058C78.6443 18.11 78.6183 18.474 78.5663 19.15H67.9843C68.175 20.0167 68.6256 20.7013 69.3363 21.204C70.047 21.7067 70.931 21.958 71.9883 21.958C72.7163 21.958 73.3576 21.854 73.9123 21.646C74.4843 21.4207 75.013 21.074 75.4983 20.606L77.6563 22.946C76.339 24.454 74.415 25.208 71.8843 25.208C70.307 25.208 68.9116 24.9047 67.6983 24.298C66.485 23.674 65.549 22.816 64.8903 21.724C64.2316 20.632 63.9023 19.3927 63.9023 18.006C63.9023 16.6367 64.223 15.406 64.8643 14.314C65.523 13.2047 66.4156 12.3467 67.5423 11.74C68.6863 11.116 69.9603 10.804 71.3643 10.804C72.7336 10.804 73.973 11.0987 75.0823 11.688C76.1916 12.2773 77.0583 13.1267 77.6823 14.236C78.3236 15.328 78.6443 16.602 78.6443 18.058ZM71.3903 13.872C70.4716 13.872 69.7003 14.132 69.0763 14.652C68.4523 15.172 68.071 15.8827 67.9323 16.784H74.8223C74.6836 15.9 74.3023 15.198 73.6783 14.678C73.0543 14.1407 72.2916 13.872 71.3903 13.872Z" fill="#1C1C1C"/>
</svg>
